Coordinates
version=1
nRows=23
nColumns=30
inDegrees=yes

Units are S.I. units (second, meters, Newtons, ...)
Angles are in degrees.

endheader
time	floatyaw	floatroll	floatpitch	floatx	floaty	floatz	pro_sup_l	deviation_l	flexion_l	cmc_flexion_l	cmc_abduction_l	mp_flexion_l	ip_flexion_l	2mcp_flexion_l	2mcp_abduction_l	2pm_flexion_l	2md_flexion_l	3mcp_flexion_l	3mcp_abduction_l	3pm_flexion_l	3md_flexion_l	4mcp_flexion_l	4mcp_abduction_l	4pm_flexion_l	4md_flexion_l	5mcp_flexion_l	5mcp_abduction_l	5pm_flexion_l	5md_flexion_l
-0.995000	3.029614	-4.103828	101.268469	-0.101830	-0.208682	-0.043294	83.427320	2.605693	-0.379803	13.232275	2.671698	-23.638037	-36.413241	41.237360	7.857757	51.129818	33.843688	27.293252	4.913380	49.493790	30.986227	17.360758	-4.618417	62.960916	40.610323	10.706772	-8.505774	62.287030	40.868737
-0.985000	3.029614	-4.103828	101.268469	-0.101828	-0.208673	-0.043261	83.410114	2.567486	-0.369421	13.237077	2.689328	-23.628345	-36.401088	41.222103	7.858174	51.122469	33.838045	27.286936	4.922205	49.504276	30.989943	17.361537	-4.602687	62.958989	40.607958	10.759455	-8.543777	62.300471	40.865776
-0.975000	3.029614	-4.103828	101.268469	-0.101827	-0.208666	-0.043221	83.384771	2.522107	-0.357506	13.230744	2.708583	-23.620991	-36.385537	41.203367	7.866547	51.123003	33.838045	27.273936	4.931899	49.519348	30.995900	17.353104	-4.587382	62.953850	40.604541	10.826256	-8.601024	62.313484	40.862959
-0.965000	3.029614	-4.103828	101.268469	-0.101820	-0.208662	-0.043180	83.358292	2.476809	-0.349880	13.215542	2.725130	-23.618342	-36.370311	41.192015	7.877580	51.135478	33.844620	27.264655	4.940698	49.538564	31.003961	17.347846	-4.576748	62.949036	40.601405	10.893052	-8.660052	62.328770	40.862825
-0.955000	3.029614	-4.103828	101.268469	-0.101805	-0.208665	-0.043143	83.336981	2.439001	-0.350101	13.195209	2.736840	-23.622657	-36.359971	41.195034	7.885896	51.159313	33.856460	27.267550	4.946418	49.560088	31.013495	17.354140	-4.572591	62.947296	40.599791	10.945310	-8.704197	62.348917	40.867733
-0.945000	3.029614	-4.103828	101.268469	-0.101782	-0.208674	-0.043115	83.323192	2.412444	-0.357486	13.172900	2.745337	-23.634750	-36.357528	41.211831	7.888433	51.189801	33.870874	27.284329	4.947642	49.581772	31.023975	17.371240	-4.573366	62.948522	40.600150	10.975206	-8.725876	62.373844	40.878049
-0.935000	3.029614	-4.103828	101.268469	-0.101755	-0.208687	-0.043098	83.314826	2.395907	-0.367821	13.150355	2.754937	-23.652798	-36.362754	41.235122	7.885235	51.220290	33.884918	27.309587	4.944621	49.602068	31.035195	17.390650	-4.575290	62.950183	40.602134	10.985173	-8.729114	62.400293	40.891580
-0.925000	3.029614	-4.103828	101.268469	-0.101729	-0.208701	-0.043089	83.308041	2.385083	-0.376214	13.128632	2.769332	-23.672536	-36.372533	41.255660	7.878617	51.244534	33.896095	27.335002	4.939233	49.619960	31.046850	17.403003	-4.575103	62.949939	40.605225	10.984852	-8.724478	62.423840	40.904838
-0.915000	3.029614	-4.103828	101.268469	-0.101708	-0.208712	-0.043084	83.300687	2.375682	-0.380071	13.109316	2.788018	-23.689019	-36.382964	41.267820	7.871693	51.258215	33.902487	27.354954	4.934109	49.634094	31.057885	17.405410	-4.572683	62.948364	40.609494	10.984010	-8.720786	62.441915	40.915225
-0.905000	3.029614	-4.103828	101.268469	-0.101690	-0.208719	-0.043078	83.293657	2.365133	-0.380324	13.094843	2.805126	-23.699015	-36.391744	41.272664	7.867182	51.259572	33.902772	27.369742	4.931522	49.642280	31.066366	17.404021	-4.571565	62.949565	40.615833	10.987011	-8.719998	62.455599	40.922479
-0.895000	3.029614	-4.103828	101.268469	-0.101674	-0.208721	-0.043065	83.289496	2.352313	-0.380408	13.087535	2.812205	-23.702698	-36.399385	41.276785	7.866679	51.249519	33.896525	27.384636	4.932535	49.642227	31.070262	17.410178	-4.576853	62.958808	40.625314	10.992232	-8.718179	62.468899	40.928413
-0.885000	3.029614	-4.103828	101.268469	-0.101657	-0.208720	-0.043043	83.289801	2.336551	-0.383941	13.088090	2.803664	-23.703672	-36.408690	41.287901	7.870205	51.231429	33.884705	27.405917	4.936642	49.633120	31.068651	17.432930	-4.591732	62.978332	40.637914	10.995635	-8.710516	62.485991	40.935259
-0.875000	3.029614	-4.103828	101.268469	-0.101639	-0.208718	-0.043010	83.293444	2.317294	-0.392578	13.094545	2.781213	-23.707279	-36.422915	41.310015	7.876117	51.210333	33.869797	27.436706	4.941982	49.616566	31.062368	17.472644	-4.614747	63.004024	40.651512	10.995308	-8.696378	62.508093	40.943755
-0.865000	3.029614	-4.103828	101.268469	-0.101622	-0.208719	-0.042971	83.296853	2.294807	-0.405209	13.102509	2.753954	-23.717875	-36.443606	41.340947	7.881688	51.191370	33.855158	27.475058	4.946170	49.595826	31.053480	17.519660	-4.639598	63.025633	40.662127	10.994013	-8.681273	62.531822	40.952166
-0.855000	3.029614	-4.103828	101.268469	-0.101607	-0.208722	-0.042932	83.296303	2.271161	-0.418902	13.106927	2.733797	-23.736084	-36.469045	41.373538	7.884322	51.177966	33.843706	27.515250	4.947532	49.573908	31.044051	17.559087	-4.657804	63.031247	40.665647	10.998610	-8.674808	62.550174	40.956848
-0.845000	3.029614	-4.103828	101.268469	-0.101597	-0.208729	-0.042900	83.290680	2.250275	-0.430995	13.104816	2.729247	-23.757098	-36.493898	41.399733	7.882807	51.170804	33.836701	27.551176	4.946246	49.552435	31.035329	17.579296	-4.662795	63.013937	40.660171	11.017490	-8.686265	62.556043	40.954132
-0.835000	3.029614	-4.103828	101.268469	-0.101589	-0.208739	-0.042880	83.282444	2.236491	-0.441004	13.097436	2.741464	-23.771068	-36.510283	41.415082	7.877991	51.168327	33.833439	27.579579	4.944656	49.532520	31.028123	17.578912	-4.653061	62.976687	40.647554	11.058136	-8.720768	62.546624	40.942508
-0.825000	3.029614	-4.103828	101.268469	-0.101579	-0.208753	-0.042876	83.275722	2.232557	-0.451154	13.090228	2.764479	-23.766227	-36.510153	41.420858	7.872628	51.168370	33.832040	27.601261	4.946280	49.516697	31.023829	17.567699	-4.632635	62.932473	40.633186	11.125553	-8.777845	62.525978	40.923817
-0.815000	3.029614	-4.103828	101.268469	-0.101564	-0.208772	-0.042886	83.272890	2.238633	-0.465303	13.090213	2.788596	-23.734029	-36.488422	41.422434	7.870343	51.169626	33.830740	27.620018	4.953825	49.509590	31.024789	17.560914	-4.608966	62.899081	40.623970	11.220429	-8.851686	62.503764	40.902715
-0.805000	3.029614	-4.103828	101.268469	-0.101541	-0.208799	-0.042911	83.272416	2.252992	-0.487046	13.102306	2.804456	-23.674034	-36.445589	41.425055	7.874030	51.171976	33.828876	27.640359	4.967289	49.515854	31.033157	17.571164	-4.589685	62.891106	40.625330	11.336367	-8.931665	62.490639	40.884813
-0.795000	3.029614	-4.103828	101.268469	-0.101509	-0.208835	-0.042950	83.269653	2.273479	-0.518107	13.126737	2.805671	-23.595784	-36.388499	41.429922	7.884387	51.175874	33.827092	27.665309	4.983419	49.536275	31.048787	17.602848	-4.579915	62.913069	40.638567	11.458184	-9.003374	62.493264	40.874624
-0.785000	3.029614	-4.103828	101.268469	-0.101476	-0.208882	-0.043002	83.259874	2.298226	-0.557626	13.158992	2.789501	-23.516291	-36.328561	41.433219	7.899381	51.181725	33.826925	27.695158	4.996934	49.564860	31.067783	17.651465	-4.580951	62.957080	40.659913	11.564530	-9.051740	62.511814	40.874241
-0.775000	3.029614	-4.103828	101.268469	-0.101450	-0.208935	-0.043063	83.241149	2.325147	-0.602312	13.192114	2.756366	-23.454002	-36.278062	41.428719	7.914848	51.189841	33.830073	27.727467	5.002814	49.589692	31.083258	17.706721	-4.590282	63.006319	40.681995	11.635516	-9.066425	62.540746	40.882897
